<?xml version="1.0" standalone="no"?>
<!DOCTYPE svg PUBLIC "-//W3C//DTD SVG 20010904//EN"
 "http://www.w3.org/TR/2001/REC-SVG-20010904/DTD/svg10.dtd">
<svg version="1.0" xmlns="http://www.w3.org/2000/svg"
 width="1365.000000pt" height="1365.000000pt" viewBox="0 0 1365.000000 1365.000000"
 preserveAspectRatio="xMidYMid meet">
<metadata>
Created by potrace 1.11, written by Peter Selinger 2001-2013
</metadata>
<g transform="translate(0.000000,1365.000000) scale(0.100000,-0.100000)"
fill="#000000" stroke="none">
<path d="M9329 13640 c-170 -41 -311 -156 -385 -315 -175 -377 118 -811 533
-789 411 23 656 454 465 818 -62 119 -170 213 -299 263 -55 21 -88 26 -173 28
-58 2 -121 -1 -141 -5z"/>
<path d="M9261 12118 c-7 -35 -14 -72 -15 -83 -2 -11 -16 -90 -30 -175 -36
-206 -33 -189 -51 -314 -20 -138 -22 -159 -30 -221 -4 -27 -8 -57 -10 -65 -2
-8 -7 -46 -10 -85 -3 -38 -8 -81 -10 -95 -5 -27 -9 -58 -29 -265 -3 -27 -8
-72 -10 -100 -13 -125 -22 -253 -31 -430 -4 -66 -7 -122 -7 -125 -3 -49 8 -24
23 50 27 135 27 136 44 235 9 50 18 101 20 115 4 21 23 149 40 270 3 19 7 49
10 65 3 17 7 46 9 65 15 112 26 202 31 250 4 30 8 66 10 80 4 27 13 114 20
200 3 30 7 71 10 90 2 19 7 73 10 120 4 47 8 101 10 120 2 19 7 91 10 160 4
69 8 142 9 163 4 58 -9 43 -23 -25z"/>
<path d="M12360 10408 c-243 -85 -377 -303 -337 -553 28 -180 168 -334 353
-388 63 -18 189 -19 252 -2 132 36 237 117 305 235 79 140 76 359 -7 494 -62
100 -185 192 -295 221 -81 21 -198 18 -271 -7z"/>
<path d="M8910 9826 c-209 -60 -357 -252 -352 -456 10 -377 415 -594 729 -391
217 140 275 443 126 659 -61 89 -160 160 -262 187 -62 16 -186 17 -241 1z"/>
<path d="M11749 9756 c-2 -2 -40 -7 -83 -11 -43 -4 -86 -8 -95 -10 -9 -1 -43
-6 -76 -9 -33 -4 -71 -9 -85 -11 -14 -3 -41 -7 -60 -9 -115 -15 -396 -64 -495
-86 -22 -5 -53 -11 -70 -14 -16 -3 -75 -15 -130 -26 -138 -29 -135 -29 -153
-34 -9 -3 -28 -7 -42 -10 -99 -20 -453 -116 -447 -122 4 -4 253 24 367 41 14
2 41 6 60 9 99 14 118 17 140 21 14 3 41 8 60 11 19 2 46 7 60 10 14 2 39 7
55 10 17 2 89 16 160 30 72 14 141 28 155 30 14 3 33 7 42 10 10 3 30 7 45 10
16 3 57 12 93 20 36 9 75 18 88 20 92 18 404 105 417 116 5 4 7 8 4 8 -3 0 -8
-2 -10 -4z"/>
<path d="M4355 9005 c-38 -7 -86 -16 -105 -20 -55 -10 -200 -60 -276 -96 -234
-110 -410 -259 -592 -504 -97 -129 -205 -412 -227 -590 -4 -27 -8 -62 -11 -77
-7 -47 -7 -209 1 -283 43 -415 266 -800 590 -1016 172 -116 360 -192 600 -245
75 -17 172 -31 218 -33 11 -1 -54 -58 -155 -138 -95 -75 -175 -139 -178 -142
-3 -4 -25 -22 -50 -41 -83 -65 -550 -457 -570 -480 -3 -3 -61 -57 -130 -120
-326 -299 -571 -580 -587 -673 -23 -146 167 -279 507 -355 103 -23 149 -25
492 -26 233 -1 267 -3 263 -16 -2 -8 -9 -40 -14 -70 -6 -30 -22 -104 -36 -165
-14 -60 -28 -121 -30 -135 -13 -67 -157 -630 -189 -738 -47 -159 -80 -241
-129 -322 -43 -72 -132 -198 -174 -247 -16 -17 -53 -61 -83 -97 -49 -57 -69
-71 -175 -124 -145 -73 -219 -104 -350 -149 -120 -41 -315 -90 -391 -98 -30
-4 -78 -10 -107 -15 -52 -9 -381 -6 -427 3 -14 3 -43 8 -65 11 -77 12 -249 58
-339 93 -189 71 -374 178 -541 311 -94 75 -275 256 -335 336 l-42 56 -32 -22
c-17 -12 -33 -23 -35 -25 -2 -1 8 -21 23 -43 14 -22 26 -42 26 -44 0 -10 117
-197 201 -321 257 -379 535 -674 849 -897 70 -49 92 -63 216 -132 196 -110
476 -209 649 -232 28 -3 52 -8 55 -9 12 -7 200 -19 305 -19 192 0 333 17 565
69 164 36 412 129 624 234 297 146 614 361 855 578 17 15 43 24 90 29 36 3 75
8 85 10 117 21 663 21 775 -1 10 -2 44 -6 77 -9 32 -4 102 -14 154 -22 52 -9
109 -18 125 -21 17 -2 46 -8 65 -13 19 -5 49 -12 66 -14 105 -18 441 -118 624
-186 143 -52 367 -150 530 -231 200 -99 240 -122 555 -312 26 -16 224 -149
289 -195 28 -19 65 -45 81 -56 17 -12 32 -23 35 -26 3 -3 32 -25 65 -49 58
-44 305 -239 315 -250 3 -4 39 -35 80 -71 150 -130 329 -304 458 -445 41 -44
71 -75 68 -68 -5 10 -63 170 -102 281 -9 24 -40 103 -71 175 -177 421 -410
800 -723 1177 -173 208 -519 544 -716 696 -173 133 -222 169 -334 246 -302
207 -695 419 -999 538 l-164 65 -45 69 c-98 150 -196 410 -227 596 -3 19 -7
46 -10 60 -28 150 -42 341 -39 545 1 155 11 353 19 405 2 14 6 52 10 86 3 33
7 71 10 85 2 13 6 47 10 74 3 28 8 57 10 65 2 8 6 33 10 55 6 40 33 193 42
230 2 11 6 31 9 45 3 14 9 41 14 60 5 19 11 46 14 60 9 53 68 266 79 287 7 12
111 154 232 315 272 361 346 461 365 489 8 12 20 27 25 33 12 13 84 111 107
146 19 27 232 319 245 335 38 46 617 860 748 1051 44 64 106 151 139 193 32
42 67 93 77 113 l19 37 -37 19 -37 20 -38 -55 c-21 -29 -38 -58 -38 -63 0 -5
-55 -65 -122 -133 -255 -259 -681 -582 -1386 -1049 -161 -106 -622 -401 -712
-455 l-37 -22 48 95 c210 418 167 907 -118 1339 -248 376 -574 602 -988 684
-113 22 -387 26 -490 6z"/>
</g>
</svg>
